<svg xmlns="http://www.w3.org/2000/svg" width="2000" height="200"><path d="M956,163L926,-74L539,37Z" fill="#90d3be" stroke="#90d3be" stroke-width="1.51"/><path d="M539,37L700,281L956,163Z" fill="#86cdc2" stroke="#86cdc2" stroke-width="1.51"/><path d="M539,37L416,274L700,281Z" fill="#8dcec3" stroke="#8dcec3" stroke-width="1.51"/><path d="M539,37L304,-103L416,274Z" fill="#a1d9bf" stroke="#a1d9bf" stroke-width="1.51"/><path d="M926,-74L544,-298L539,37Z" fill="#aadeb8" stroke="#aadeb8" stroke-width="1.51"/><path d="M926,-74L1055,-307L544,-298Z" fill="#addec1" stroke="#addec1" stroke-width="1.51"/><path d="M1298,-391L1055,-307L1473,-20Z" fill="#9bd2ca" stroke="#9bd2ca" stroke-width="1.51"/><path d="M544,-298L304,-103L539,37Z" fill="#b5e2ba" stroke="#b5e2ba" stroke-width="1.51"/><path d="M544,-298L418,-342L304,-103Z" fill="#c4e8c1" stroke="#c4e8c1" stroke-width="1.51"/><path d="M1055,-307L418,-342L544,-298Z" fill="#bce5c3" stroke="#bce5c3" stroke-width="1.51"/><path d="M700,281L915,616L956,163Z" fill="#6cb9c4" stroke="#6cb9c4" stroke-width="1.51"/><path d="M416,274L793,611L700,281Z" fill="#79b9be" stroke="#79b9be" stroke-width="1.51"/><path d="M793,611L915,616L700,281Z" fill="#67a9ba" stroke="#67a9ba" stroke-width="1.51"/><path d="M1473,-20L1055,-307L926,-74Z" fill="#94d2c3" stroke="#94d2c3" stroke-width="1.51"/><path d="M418,-342L109,-100L304,-103Z" fill="#c4e8c1" stroke="#c4e8c1" stroke-width="1.51"/><path d="M304,-103L109,-100L416,274Z" fill="#addfc0" stroke="#addfc0" stroke-width="1.51"/><path d="M1055,-307L1298,-391L418,-342Z" fill="#b1e0ca" stroke="#b1e0ca" stroke-width="1.51"/><path d="M1473,-20L926,-74L956,163Z" fill="#81ccc3" stroke="#81ccc3" stroke-width="1.51"/><path d="M1473,216L1473,-20L956,163Z" fill="#6ac0cb" stroke="#6ac0cb" stroke-width="1.51"/><path d="M915,616L1206,636L956,163Z" fill="#58a7c0" stroke="#58a7c0" stroke-width="1.51"/><path d="M280,654L1206,636L915,616Z" fill="#6299b2" stroke="#6299b2" stroke-width="1.51"/><path d="M1206,636L1473,216L956,163Z" fill="#55b0cc" stroke="#55b0cc" stroke-width="1.51"/><path d="M416,274L280,654L793,611Z" fill="#7aadb9" stroke="#7aadb9" stroke-width="1.51"/><path d="M793,611L280,654L915,616Z" fill="#6b9db1" stroke="#6b9db1" stroke-width="1.51"/><path d="M-95,483L280,654L416,274Z" fill="#8ab7c2" stroke="#8ab7c2" stroke-width="1.51"/><path d="M109,-100L-53,234L416,274Z" fill="#a5dac8" stroke="#a5dac8" stroke-width="1.51"/><path d="M1206,636L1656,338L1473,216Z" fill="#3fa1c9" stroke="#3fa1c9" stroke-width="1.51"/><path d="M1473,216L1686,-120L1473,-20Z" fill="#6fbac4" stroke="#6fbac4" stroke-width="1.51"/><path d="M1473,-20L1686,-120L1298,-391Z" fill="#8cc6c7" stroke="#8cc6c7" stroke-width="1.51"/><path d="M1656,338L1686,-120L1473,216Z" fill="#59b0c8" stroke="#59b0c8" stroke-width="1.51"/><path d="M-53,234L-95,483L416,274Z" fill="#96c9cd" stroke="#96c9cd" stroke-width="1.51"/><path d="M109,-100L-244,-90L-53,234Z" fill="#b8e3c9" stroke="#b8e3c9" stroke-width="1.51"/><path d="M-53,234L-301,211L-95,483Z" fill="#9dced5" stroke="#9dced5" stroke-width="1.51"/><path d="M-242,-345L-244,-90L109,-100Z" fill="#cfedcc" stroke="#cfedcc" stroke-width="1.51"/><path d="M1686,-120L1622,-468L1298,-391Z" fill="#96c8ce" stroke="#96c8ce" stroke-width="1.51"/><path d="M1298,-391L-117,-516L418,-342Z" fill="#c9eaca" stroke="#c9eaca" stroke-width="1.51"/><path d="M418,-342L-117,-516L109,-100Z" fill="#d3eecd" stroke="#d3eecd" stroke-width="1.51"/><path d="M1622,-468L-117,-516L1298,-391Z" fill="#b7e3d1" stroke="#b7e3d1" stroke-width="1.51"/><path d="M-244,-90L-301,211L-53,234Z" fill="#b0dfd2" stroke="#b0dfd2" stroke-width="1.51"/><path d="M-244,-90L-242,-345L-301,211Z" fill="#c8eacb" stroke="#c8eacb" stroke-width="1.51"/><path d="M-117,-516L-242,-345L109,-100Z" fill="#d9f1d3" stroke="#d9f1d3" stroke-width="1.51"/><path d="M1656,338L1937,304L1686,-120Z" fill="#50a7c5" stroke="#50a7c5" stroke-width="1.51"/><path d="M1206,636L1763,491L1656,338Z" fill="#3492c2" stroke="#3492c2" stroke-width="1.51"/><path d="M-301,211L-265,650L-95,483Z" fill="#95becf" stroke="#95becf" stroke-width="1.51"/><path d="M-95,483L-265,650L280,654Z" fill="#89abc2" stroke="#89abc2" stroke-width="1.51"/><path d="M1763,491L1937,304L1656,338Z" fill="#3292c1" stroke="#3292c1" stroke-width="1.51"/><path d="M1686,-120L1990,-361L1622,-468Z" fill="#8ebcc7" stroke="#8ebcc7" stroke-width="1.51"/><path d="M2080,-68L1990,-361L1686,-120Z" fill="#80b0bd" stroke="#80b0bd" stroke-width="1.51"/><path d="M1937,304L2080,-68L1686,-120Z" fill="#63a7bc" stroke="#63a7bc" stroke-width="1.51"/><path d="M1763,491L1916,719L1937,304Z" fill="#2380b8" stroke="#2380b8" stroke-width="1.51"/><path d="M1206,636L1916,719L1763,491Z" fill="#2780b9" stroke="#2780b9" stroke-width="1.51"/><path d="M280,654L1916,719L1206,636Z" fill="#498db3" stroke="#498db3" stroke-width="1.51"/><path d="M-265,650L1916,719L280,654Z" fill="#6a97aa" stroke="#6a97aa" stroke-width="1.51"/><path d="M2226,-174L2080,-68L2338,170Z" fill="#679ab0" stroke="#679ab0" stroke-width="1.51"/><path d="M2080,-68L2226,-174L1990,-361Z" fill="#7fa7b9" stroke="#7fa7b9" stroke-width="1.51"/><path d="M2338,170L2080,-68L1937,304Z" fill="#4e98ba" stroke="#4e98ba" stroke-width="1.51"/><path d="M2226,-174L2247,-309L1990,-361Z" fill="#84a7bc" stroke="#84a7bc" stroke-width="1.51"/><path d="M1990,-361L2247,-309L1622,-468Z" fill="#8db4c7" stroke="#8db4c7" stroke-width="1.51"/><path d="M2284,636L2338,170L1937,304Z" fill="#297fb7" stroke="#297fb7" stroke-width="1.51"/><path d="M2226,-174L2338,170L2247,-309Z" fill="#709aac" stroke="#709aac" stroke-width="1.51"/><path d="M1916,719L2284,636L1937,304Z" fill="#1872b2" stroke="#1872b2" stroke-width="1.51"/></svg>